<?xml version="1.0" standalone="no"?>
<!DOCTYPE svg PUBLIC "-//W3C//DTD SVG 20010904//EN"
 "http://www.w3.org/TR/2001/REC-SVG-20010904/DTD/svg10.dtd">
<svg version="1.0" xmlns="http://www.w3.org/2000/svg"
 width="866.000000pt" height="866.000000pt" viewBox="0 0 866.000000 866.000000"
 preserveAspectRatio="xMidYMid meet">
<metadata>
Created by potrace 1.11, written by Peter Selinger 2001-2013
</metadata>
<g transform="translate(0.000000,866.000000) scale(0.100000,-0.100000)"
fill="#000000" stroke="none">
<path d="M4258 8595 c-2 -2 -37 -6 -78 -9 -41 -2 -75 -5 -75 -6 0 -1 -13 -4
-30 -6 -16 -3 -48 -10 -70 -16 -22 -6 -43 -11 -47 -10 -5 1 -8 -2 -8 -8 0 -5
-3 -9 -7 -8 -10 2 -29 -6 -121 -48 -41 -19 -77 -34 -82 -34 -4 0 -13 -7 -20
-15 -7 -9 -15 -13 -18 -11 -3 3 -18 -4 -33 -15 -16 -11 -29 -17 -29 -13 0 3
-6 2 -12 -4 -7 -5 -65 -37 -128 -70 -108 -56 -138 -72 -235 -127 -22 -12 -67
-37 -100 -55 -33 -18 -87 -48 -120 -67 -33 -19 -71 -39 -85 -46 -14 -6 -27
-14 -30 -17 -3 -3 -48 -30 -100 -59 -52 -30 -111 -63 -130 -74 -38 -22 -135
-77 -215 -122 -27 -15 -57 -33 -65 -39 -8 -7 -28 -18 -45 -26 -16 -8 -36 -21
-43 -27 -7 -7 -18 -13 -23 -13 -5 0 -22 -8 -37 -19 -50 -34 -219 -131 -230
-131 -6 0 -12 -4 -14 -8 -2 -7 -116 -75 -301 -181 -23 -13 -45 -28 -48 -33 -3
-5 -10 -9 -15 -9 -9 1 -404 -234 -427 -254 -7 -6 -55 -37 -107 -70 -52 -32
-100 -64 -107 -70 -35 -29 -43 -35 -48 -35 -3 0 -11 -4 -18 -10 -7 -5 -46 -35
-87 -67 -92 -69 -220 -198 -220 -222 0 -5 -3 -11 -8 -13 -10 -4 -65 -111 -95
-184 -21 -52 -28 -79 -43 -154 -6 -31 -15 -108 -19 -165 -2 -33 -6 -92 -9
-131 -6 -69 -18 -424 -17 -454 1 -8 1 -24 0 -35 -6 -72 -2 -2296 4 -2405 12
-210 14 -242 21 -290 3 -25 8 -67 11 -95 3 -27 7 -57 10 -65 3 -8 7 -29 9 -45
19 -148 136 -407 225 -496 40 -41 137 -121 173 -144 9 -5 84 -56 167 -112 83
-57 153 -103 155 -103 2 0 37 -23 79 -50 42 -28 80 -50 86 -50 5 0 11 -4 13
-8 2 -4 19 -17 38 -29 149 -89 480 -288 500 -301 14 -9 27 -17 30 -17 3 0 16
-8 30 -16 92 -58 139 -86 170 -104 40 -22 167 -96 343 -199 42 -25 77 -42 77
-38 0 4 4 2 8 -4 4 -6 21 -19 37 -28 17 -9 57 -32 90 -52 33 -19 72 -40 88
-47 15 -6 27 -15 27 -19 0 -4 4 -8 9 -8 5 0 44 -20 85 -45 42 -25 81 -45 85
-45 5 0 11 -3 13 -7 2 -5 26 -20 53 -34 82 -42 159 -84 165 -89 3 -3 16 -11
30 -18 14 -7 54 -28 90 -48 36 -20 115 -61 175 -92 61 -31 112 -60 113 -64 2
-5 9 -8 16 -8 7 0 44 -15 82 -34 70 -33 206 -85 279 -106 117 -33 449 -32 594
1 25 6 53 12 61 14 21 5 119 40 160 58 19 8 39 15 44 15 5 0 12 4 15 9 3 4 56
33 116 63 61 30 112 57 115 60 3 3 57 32 120 64 63 33 117 62 120 65 3 3 23
15 45 26 22 11 42 22 45 25 3 3 21 13 40 23 73 39 95 52 102 62 4 6 8 6 8 2 0
-5 13 1 29 12 16 12 34 21 40 21 6 0 11 5 11 10 0 6 4 10 10 10 5 0 64 32 131
70 68 39 124 70 126 70 3 0 24 13 47 30 24 16 46 26 50 23 3 -4 6 -1 6 5 0 7
5 12 10 12 6 0 36 16 66 35 30 19 58 35 63 35 5 0 16 6 23 12 8 7 29 21 48 32
19 10 49 26 65 36 102 60 285 165 315 182 19 11 57 34 84 51 49 31 90 55 136
79 14 7 27 15 30 19 3 3 12 9 20 12 8 4 29 16 45 27 17 11 48 29 69 41 21 11
44 25 50 30 6 5 76 50 156 99 80 49 150 93 155 97 6 5 28 20 50 33 22 13 42
27 45 30 3 3 23 17 45 30 22 13 42 26 45 30 3 3 25 19 50 35 65 44 218 162
269 209 131 121 215 298 237 496 3 30 8 58 10 62 2 3 0 9 -6 13 -6 4 -7 12 -3
18 9 15 13 160 16 619 1 197 6 358 10 358 4 0 3 8 -2 19 -6 10 -8 21 -5 23 6
7 5 1489 -1 1968 -8 537 -15 668 -36 705 -4 6 -9 24 -13 40 -21 90 -152 312
-237 402 -54 58 -236 193 -259 193 -5 0 -10 3 -10 8 0 4 -27 23 -60 42 -33 19
-60 38 -60 43 0 4 -5 7 -10 7 -6 0 -29 12 -53 27 -69 45 -101 63 -119 69 -10
4 -18 10 -18 15 0 5 -7 9 -15 9 -8 0 -15 4 -15 9 0 5 -8 11 -17 14 -10 4 -36
17 -58 30 -139 84 -265 155 -265 149 0 -4 -4 -2 -8 4 -4 6 -65 43 -137 84 -71
40 -137 79 -145 86 -8 7 -18 13 -23 13 -4 0 -49 24 -100 54 -50 30 -112 65
-137 79 -48 26 -145 83 -170 98 -28 18 -285 165 -313 179 -15 8 -27 18 -27 23
0 4 -8 8 -19 8 -10 0 -24 7 -31 15 -7 8 -19 15 -26 15 -8 0 -14 5 -14 10 0 6
-4 10 -9 10 -9 0 -99 49 -161 88 -14 9 -27 15 -30 15 -3 0 -16 7 -30 17 -14 9
-52 32 -85 50 -33 18 -82 46 -110 61 -27 15 -66 37 -85 47 -19 11 -73 40 -120
66 -120 66 -345 176 -390 191 -3 1 -17 7 -31 12 -14 6 -39 14 -55 17 -16 2
-40 8 -54 11 -26 7 -356 16 -362 10z"/>
</g>
</svg>
